<svg xmlns="http://www.w3.org/2000/svg" width="27.113" height="27.159" viewBox="0 0 27.113 27.159"><defs><style>.a{fill:none;stroke:#43a047;stroke-linecap:round;stroke-linejoin:round;stroke-width:3px;}</style></defs><path class="a" d="M18.005,6.087a5.734,5.734,0,0,1,4.53,4.53M18.005,1.5a10.321,10.321,0,0,1,9.117,9.105m-1.147,9.151V23.2a2.294,2.294,0,0,1-2.5,2.294,22.7,22.7,0,0,1-9.9-3.521A22.362,22.362,0,0,1,6.7,15.089,22.7,22.7,0,0,1,3.177,5.147a2.294,2.294,0,0,1,2.282-2.5H8.9a2.294,2.294,0,0,1,2.294,1.972A14.725,14.725,0,0,0,12,7.842a2.294,2.294,0,0,1-.516,2.42l-1.456,1.456A18.349,18.349,0,0,0,16.9,18.6l1.456-1.456a2.294,2.294,0,0,1,2.42-.516,14.725,14.725,0,0,0,3.222.8A2.294,2.294,0,0,1,25.975,19.757Z" transform="translate(-1.667 0.156)"/></svg>