<svg xmlns="http://www.w3.org/2000/svg" xmlns:xlink="http://www.w3.org/1999/xlink" width="15.918" height="16" viewBox="0 0 15.918 16"><defs><style>.a{fill:none;}.b{clip-path:url(#a);}.c{fill:#fff;fill-rule:evenodd;}</style><clipPath id="a"><rect class="a" width="15.918" height="16"/></clipPath></defs><g class="b"><path class="c" d="M15,14H10a2,2,0,0,1-4,0H1a.961.961,0,0,1-.9-.7,1.068,1.068,0,0,1,.3-1.1A4.026,4.026,0,0,0,2,9V6A6,6,0,0,1,14,6V9a4.026,4.026,0,0,0,1.6,3.2.947.947,0,0,1,.3,1.1A.961.961,0,0,1,15,14Z" transform="translate(-0.063)"/></g></svg>